:SAMPLES-PER-SECOND 30
:FRAME-RANGE 1-1700
:FULLY-SPECIFIED
:DEGREES
532
root  -10.8431 40.6741 -38.9507 -3.98172 24.943 1.16696
RightUpLeg  5.24191 -15.6273 -3.9859
RightLeg  21.7796 -7.73103 -3.60374
RightFoot  -4.89697 -1.02397 17.466
RightToes  -1.16417e-010 0 -3.6325e-017
Spine  15.5252 -0.48359 -4.25363
Spine1  -0.598468 -3.70272 3.52986
HEad  -12.0529 32.8665 -18.4854
LeftShoulder1  3.00131 -4.98782 -29.3112
LeftArm  80.0802 -32.1797 -87.0133
LeftForeArm  -4.33435 -16.3875 -12.8618
LeftHand  -0.000865942 3.59404 -1.44335
RightShoulder  13.7597 23.2109 44.8496
RightArm  38.5634 6.94557 22.4252
RightForeArm  18.7206 27.5265 4.92311
RightHand  1.43188 7.44244 12.4975
LeftUpLeg  -101.223 18.0757 -75.6759
LeftLeg  124.703 -3.7712 4.5647
LeftFoot  15.4586 3.66698 -15.7132
LeftToes  1.03528e-008 1.55373e-010 -2.26046e-010
533
root  -10.5942 41.4335 -38.3434 -4.79428 27.1461 1.20912
RightUpLeg  4.3204 -10.5709 -3.78251
RightLeg  25.3774 -8.36097 -4.52271
RightFoot  3.53683 -2.33054 17.902
RightToes  -1.16417e-010 0 -3.6325e-017
Spine  16.5025 -0.497319 -3.65062
Spine1  -0.880599 -3.77053 3.68183
HEad  -9.6308 31.6838 -18.113
LeftShoulder1  2.96924 -4.90814 -29.2635
LeftArm  81.9348 -32.9015 -87.5747
LeftForeArm  -6.19425 -16.713 -12.6501
LeftHand  0.00115721 3.60016 -1.65471
RightShoulder  13.8531 23.6407 44.4073
RightArm  37.7987 7.90421 22.5353
RightForeArm  18.8323 26.9627 4.79021
RightHand  1.4586 7.80316 12.3709
LeftUpLeg  -101.239 16.1776 -74.2231
LeftLeg  123.684 -4.35934 5.55681
LeftFoot  14.8995 4.05515 -17.6759
LeftToes  1.03528e-008 1.55373e-010 -2.26046e-010
534
root  -10.4192 41.7394 -37.865 -4.50778 28.8608 1.38914
RightUpLeg  -0.6072 -4.56623 -2.56549
RightLeg  32.1658 -6.3385 -4.52304
RightFoot  8.42416 -1.60318 9.51601
RightToes  -1.16417e-010 0 -3.6325e-017
Spine  17.3732 -0.267093 -3.64591
Spine1  -1.41355 -3.79102 4.22306
HEad  -8.77626 30.5294 -17.7954
LeftShoulder1  2.97425 -4.9548 -29.1254
LeftArm  85.7173 -33.7255 -88.73
LeftForeArm  -10.0945 -17.5649 -12.0105
LeftHand  0.00118176 3.70526 -1.7003
RightShoulder  13.8987 24.3477 43.3451
RightArm  37.9249 9.26627 22.2855
RightForeArm  18.3071 26.6291 4.74432
RightHand  1.48347 7.84953 12.5402
LeftUpLeg  -101.624 14.5226 -74.3618
LeftLeg  122.022 -5.12259 7.03649
LeftFoot  13.5348 4.06587 -18.6728
LeftToes  1.03528e-008 1.55373e-010 -2.26046e-010
535
root  -10.2966 41.7205 -37.3115 -4.42538 32.0169 1.09328
RightUpLeg  -2.98109 -1.01631 -1.39959
RightLeg  31.6913 -4.27967 -3.08736
RightFoot  4.412 -1.46676 10.792
RightToes  -1.16417e-010 0 -3.6325e-017
Spine  17.9622 -0.692919 -4.16423
Spine1  -0.934689 -4.66158 5.32125
HEad  -9.31699 29.2591 -17.3839
LeftShoulder1  3.02226 -5.05972 -29.2585
LeftArm  82.56 -34.9225 -89.7027
LeftForeArm  -7.23641 -16.5532 -12.8661
LeftHand  -0.00133486 3.92161 -1.52617
RightShoulder  13.866 25.0955 42.0027
RightArm  38.3778 10.7139 22.4342
RightForeArm  17.5018 26.0075 4.65027
RightHand  1.56128 8.13055 12.9245
LeftUpLeg  -100.383 14.3255 -74.9968
LeftLeg  120.587 -5.47296 7.97536
LeftFoot  13.0982 3.80547 -17.8234
LeftToes  1.03528e-008 1.55373e-010 -2.26046e-010
536
root  -10.2392 41.4234 -36.7097 -4.54285 34.8704 -0.187164
RightUpLeg  -4.31285 -0.0402528 0.571785
RightLeg  25.7901 -8.05297 -4.44073
RightFoot  -1.70397 -1.05128 12.2882
RightToes  -1.16417e-010 0 -3.6325e-017
Spine  18.5846 -1.12856 -3.66547
Spine1  -0.791224 -5.25781 5.76096
HEad  -9.79443 27.6141 -16.261
LeftShoulder1  3.09588 -5.23672 -29.3896
LeftArm  78.4001 -35.9537 -90.1841
LeftForeArm  -3.52492 -15.3208 -13.7932
LeftHand  -0.00543054 4.20826 -1.34228
RightShoulder  14.0313 25.7672 41.4695
RightArm  38.3233 11.0626 22.4012
RightForeArm  17.7494 25.9792 4.63066
RightHand  1.56257 8.0135 13.0535
LeftUpLeg  -99.7785 15.9518 -75.2533
LeftLeg  120.179 -4.83941 7.11754
LeftFoot  13.5011 3.78103 -17.4321
LeftToes  1.03528e-008 1.55373e-010 -2.26046e-010
537
root  -10.2643 40.6249 -36.0015 -4.40913 37.1762 -1.22737
RightUpLeg  -5.64586 0.417269 2.76035
RightLeg  19.4927 -8.58492 -3.59154
RightFoot  -7.64191 -0.510777 14.1319
RightToes  -1.16417e-010 0 -3.6325e-017
Spine  19.1913 -1.29845 -3.73503
Spine1  -1.15784 -5.51414 5.6399
HEad  -10.5465 26.0165 -15.1648
LeftShoulder1  3.11364 -5.41395 -28.875
LeftArm  76.8916 -36.1545 -90.1137
LeftForeArm  -1.93617 -14.9395 -14.0346
LeftHand  -0.00835576 4.38124 -1.43783
RightShoulder  14.3916 25.6957 42.7357
RightArm  40.3578 11.4762 21.4169
RightForeArm  17.3793 26.5587 4.77904
RightHand  1.55131 7.8593 13.1152
LeftUpLeg  -100.35 18.314 -76.4348
LeftLeg  121.025 -4.13511 5.81776
LeftFoot  13.7529 3.57147 -16.3369
LeftToes  1.03528e-008 1.55373e-010 -2.26046e-010
538
root  -10.3371 39.4466 -35.0581 -4.73813 40.0173 -2.15097
RightUpLeg  -7.88078 -1.7737 5.82863
RightLeg  20.0931 -7.19468 -3.10501
RightFoot  -8.47466 -0.101388 1.7533
RightToes  -1.16417e-010 0 -3.6325e-017
Spine  19.1493 -1.12233 -4.93059
Spine1  -0.61921 -5.86557 6.08714
HEad  -11.8363 23.601 -13.9167
LeftShoulder1  3.15432 -5.6493 -28.4118
LeftArm  80.4758 -35.3851 -89.4808
LeftForeArm  -5.29345 -16.1537 -13.1371
LeftHand  -0.00642435 4.1588 -1.67048
RightShoulder  14.4634 25.4356 43.3847
RightArm  41.0047 10.8687 21.3382
RightForeArm  17.9387 27.2078 4.89395
RightHand  1.59073 7.72418 13.5992
LeftUpLeg  -100.26 21.6313 -77.0935
LeftLeg  122.936 -2.70806 3.37417
LeftFoot  14.0216 3.16934 -14.4077
LeftToes  1.03528e-008 1.55373e-010 -2.26046e-010
539
root  -10.3186 37.9724 -34.0382 -6.90152 44.0239 -3.8476
RightUpLeg  -11.2999 -0.521256 8.84809
RightLeg  32.8255 -11.9395 -8.42805
RightFoot  -17.6245 -0.0773742 0.763327
RightToes  -1.16417e-010 0 -3.6325e-017
Spine  20.1586 -1.21043 -5.0702
Spine1  0.118189 -6.13016 6.14954
HEad  -14.3518 20.374 -13.5128
LeftShoulder1  3.15288 -5.71242 -28.1538
LeftArm  80.6764 -34.4335 -89.658
LeftForeArm  -3.08766 -16.2747 -12.9008
LeftHand  -0.0134987 4.2687 -1.1142
RightShoulder  14.2255 24.7431 43.7585
RightArm  41.1599 9.35796 21
RightForeArm  18.1523 28.8453 5.25697
RightHand  1.58995 7.28191 14.0866
LeftUpLeg  -98.4933 26.0533 -76.8518
LeftLeg  125.097 -1.01843 0.869973
LeftFoot  14.8912 2.36979 -10.5426
LeftToes  1.03528e-008 1.55373e-010 -2.26046e-010
540
root  -10.15 36.6224 -33.2566 -9.47899 48.4801 -5.80003
RightUpLeg  -14.2317 -4.92411 10.3635
RightLeg  43.36 -10.9466 -11.1619
RightFoot  -23.5819 0.0266862 1.73906
RightToes  -1.16417e-010 0 -3.6325e-017
Spine  19.7592 -2.04432 -3.84833
Spine1  2.76876 -6.31838 4.36853
HEad  -18.7407 17.7542 -14.2501
LeftShoulder1  3.21539 -5.55402 -29.4713
LeftArm  84.3878 -34.0447 -89.4415
LeftForeArm  -3.70594 -17.3116 -11.9033
LeftHand  -0.0219677 4.02597 0.00420169
RightShoulder  14.2952 24.7168 44.0299
RightArm  41.2933 9.09188 20.6939
RightForeArm  15.9528 27.4822 5.06479
RightHand  1.57756 6.92505 14.3962
LeftUpLeg  -95.1336 29.9723 -77.0177
LeftLeg  125.71 -0.756266 0.506286
LeftFoot  14.1231 0.482422 -2.51965
LeftToes  1.03528e-008 1.55373e-010 -2.26046e-010
541
root  -9.77041 35.9316 -32.1827 -12.3798 52.665 -8.03909
RightUpLeg  -13.1313 -10.0939 11.7066
RightLeg  46.8476 -10.4802 -12.0621
RightFoot  -27.9726 -0.00164442 1.28785
RightToes  -1.16417e-010 0 -3.6325e-017
Spine  19.6262 -2.1193 -3.77694
Spine1  3.07084 -6.60061 4.60547
HEad  -18.8359 16.3244 -12.6325
LeftShoulder1  3.29304 -5.61962 -30.0777
LeftArm  88.4056 -32.786 -89.7023
LeftForeArm  -6.17935 -18.3717 -10.8961
LeftHand  -0.0284282 4.13368 0.596026
RightShoulder  13.7778 23.8965 43.7088
RightArm  39.5089 8.42696 20.2524
RightForeArm  13.8753 27.3672 5.15243
RightHand  1.70762 7.11585 15.3512
LeftUpLeg  -94.2632 33.2931 -78.3948
LeftLeg  125.119 -5.51932 6.77939
LeftFoot  14.595 -1.48453 6.0499
LeftToes  1.03528e-008 1.55373e-010 -2.26046e-010
542
root  -9.3021 35.6618 -31.1206 -14.3342 54.3562 -10.0482
RightUpLeg  -11.2868 -10.8996 13.624
RightLeg  47.3842 -11.5345 -13.4232
RightFoot  -30.1797 0.0809977 1.72493
RightToes  -1.16417e-010 0 -3.6325e-017
Spine  19.0722 -1.66567 -2.86353
Spine1  1.43159 -5.95284 3.27511
HEad  -17.7933 15.8696 -11.0147
LeftShoulder1  3.31461 -5.58621 -30.4527
LeftArm  82.744 -34.4658 -90.1848
LeftForeArm  0.565087 -16.7504 -12.2423
LeftHand  -0.0186063 4.47334 -0.82763
RightShoulder  13.7091 23.5671 44.0474
RightArm  39.6738 7.95358 19.9736
RightForeArm  13.5766 28.2735 5.3777
RightHand  1.63794 7.16041 14.6636
LeftUpLeg  -97.0459 33.7111 -80.3392
LeftLeg  126.163 -3.20423 3.60689
LeftFoot  11.9534 -1.2562 5.73312
LeftToes  1.03528e-008 1.55373e-010 -2.26046e-010
